<?xml version="1.0" standalone="no"?>
<!DOCTYPE svg PUBLIC "-//W3C//DTD SVG 20010904//EN"
 "http://www.w3.org/TR/2001/REC-SVG-20010904/DTD/svg10.dtd">
<svg version="1.0" xmlns="http://www.w3.org/2000/svg"
 width="387.000000pt" height="507.000000pt" viewBox="0 0 387.000000 507.000000"
 preserveAspectRatio="xMidYMid meet">

<g transform="translate(0.000000,507.000000) scale(0.100000,-0.100000)"
fill="#000000" stroke="none">
<path d="M1321 5053 c-36 -9 -64 -25 -86 -48 -18 -19 -39 -35 -46 -35 -12 0
-11 -2 0 -9 12 -8 12 -12 2 -25 -8 -9 -19 -16 -26 -16 -7 0 -15 -9 -18 -20 -9
-36 -56 -23 -130 37 -32 26 -77 31 -77 8 0 -11 -8 -13 -32 -8 -18 3 -40 9 -48
14 -9 4 -44 -2 -83 -14 -51 -17 -67 -26 -67 -41 0 -13 -5 -17 -20 -13 -13 3
-21 -1 -25 -14 -4 -10 -11 -19 -16 -19 -5 0 -9 -7 -9 -15 0 -8 5 -15 10 -15
19 0 10 -18 -25 -51 -19 -19 -35 -43 -35 -55 0 -12 -6 -25 -13 -27 -9 -4 -9
-8 -1 -14 7 -4 14 -21 15 -38 l4 -30 -48 3 c-78 6 -102 16 -100 40 3 25 -9 28
-27 7 -7 -9 -22 -12 -38 -9 -17 3 -35 -1 -47 -11 -20 -16 -20 -16 3 -10 29 8
54 -12 47 -36 -4 -13 -1 -19 9 -19 24 0 20 -41 -4 -47 -26 -7 -26 -23 1 -23
15 0 19 -4 15 -16 -3 -9 -6 -18 -6 -20 0 -3 -11 -9 -25 -14 -14 -5 -25 -17
-25 -27 0 -10 -9 -33 -20 -51 -24 -39 -51 -39 -60 -2 -3 14 -9 20 -12 15 -3
-6 2 -28 13 -49 27 -55 25 -66 -13 -67 l-33 0 40 -15 c22 -8 46 -21 54 -28 19
-20 6 -66 -18 -66 -14 0 -18 -5 -14 -20 3 -11 0 -27 -7 -35 -15 -18 -37 -4
-51 32 -5 13 -13 23 -19 23 -16 0 -12 -15 11 -36 35 -32 41 -51 27 -90 -10
-29 -10 -37 1 -43 15 -10 8 -15 -32 -25 -18 -4 -27 -2 -27 6 0 6 -14 -1 -30
-17 -37 -35 -37 -48 -3 -89 30 -36 46 -35 86 2 l29 27 -21 -36 c-22 -38 -48
-54 -105 -64 -40 -8 -72 -35 -40 -35 11 1 37 7 59 15 59 22 61 20 63 -36 1
-58 26 -119 47 -119 8 0 15 -4 15 -9 0 -5 9 -11 20 -14 21 -5 28 -27 9 -27 -6
0 3 -16 19 -35 21 -24 33 -49 37 -82 3 -26 8 -57 10 -68 2 -11 0 -36 -6 -55
-7 -24 -7 -43 0 -63 12 -31 16 -33 83 -42 44 -6 47 -8 72 -61 34 -71 34 -117
0 -151 -20 -20 -23 -28 -12 -34 7 -5 16 -9 21 -9 11 0 8 -60 -3 -60 -17 0 -11
-51 10 -77 11 -14 20 -33 20 -42 0 -10 5 -22 11 -28 16 -16 4 -43 -18 -43 -10
0 -27 -7 -38 -16 -18 -14 -20 -27 -20 -162 0 -119 3 -153 17 -178 9 -17 42
-107 72 -200 31 -93 61 -177 66 -186 6 -10 10 -27 10 -38 0 -11 3 -20 8 -20 4
0 12 -10 17 -23 6 -12 20 -26 33 -32 12 -5 22 -13 22 -17 0 -5 9 -8 21 -8 18
0 20 -4 13 -27 -4 -16 -7 -44 -6 -64 2 -22 -4 -41 -13 -49 -11 -9 -15 -34 -15
-96 l0 -84 -39 0 c-29 0 -40 5 -43 17 -3 15 -4 15 -17 0 -12 -15 -11 -17 3
-17 12 0 16 -10 16 -40 l0 -40 -55 0 -55 0 0 -40 c0 -29 4 -40 15 -40 11 0 15
-11 15 -40 l0 -40 -40 0 -40 0 0 -80 0 -80 -40 0 -40 0 0 -40 c0 -29 -4 -40
-15 -40 -11 0 -15 -11 -15 -40 0 -29 4 -40 15 -40 12 0 15 -16 15 -80 l0 -80
-30 0 c-28 0 -30 -2 -30 -40 0 -36 -2 -40 -26 -40 -14 0 -23 -4 -20 -9 6 -10
-26 -25 -86 -41 -23 -7 -45 -15 -48 -19 -5 -7 -67 -26 -142 -44 l-48 -11 0
-298 0 -298 454 0 c354 0 455 3 459 13 3 6 2 44 0 82 -5 69 -4 70 11 41 16
-28 24 -54 25 -83 1 -7 10 -22 21 -33 19 -19 36 -20 907 -20 l888 0 30 47 c28
45 67 133 122 273 35 91 40 109 48 178 11 99 27 74 23 -38 -2 -55 0 -101 4
-103 3 -1 8 -64 10 -139 2 -102 6 -138 16 -138 7 0 12 -15 12 -40 l0 -40 420
0 420 0 0 198 0 197 -98 29 c-164 49 -175 53 -232 65 -30 7 -94 26 -141 43
-66 24 -91 38 -103 59 -9 15 -44 51 -78 80 -137 118 -169 155 -310 368 -37 55
-32 187 10 270 42 84 109 338 118 449 4 49 11 82 18 82 17 1 69 77 114 170 74
154 87 211 107 460 7 96 16 184 19 195 7 20 -16 54 -50 73 -15 8 -14 15 10 66
25 53 26 59 12 81 -14 22 -14 23 13 28 15 3 38 15 52 26 l24 20 -22 1 c-13 0
-23 -4 -23 -10 0 -12 -30 -13 -48 -2 -20 13 12 101 53 147 28 30 35 44 30 63
-5 20 2 32 39 67 40 37 45 46 42 79 -2 21 -11 43 -22 51 -15 11 -17 16 -6 26
14 15 16 59 2 59 -21 0 -9 49 30 123 28 54 40 88 40 119 0 35 9 54 45 102 50
67 54 90 25 155 -11 24 -20 65 -20 92 0 64 -16 63 -24 -1 -6 -44 -9 -50 -31
-50 -15 0 -26 7 -30 20 -7 22 -30 27 -41 9 -5 -8 -10 -6 -16 5 -7 12 -5 23 6
35 20 22 21 50 1 57 -17 7 -21 34 -5 34 6 0 22 11 36 25 21 21 23 27 12 39 -9
10 -18 11 -31 5 -12 -7 -18 -6 -21 3 -2 7 -12 40 -22 73 -9 33 -18 85 -18 116
0 32 -4 55 -9 52 -4 -2 -17 8 -30 22 -12 15 -30 36 -41 47 -15 17 -16 22 -5
29 8 5 23 8 34 7 16 -2 21 -12 23 -42 3 -29 6 -36 13 -25 8 12 10 12 19 -1 13
-20 13 1 -1 37 -5 15 -27 43 -47 62 l-37 33 -92 -5 c-54 -2 -93 0 -93 5 0 11
-54 58 -87 75 -23 12 -25 12 -27 -9 -2 -21 -27 -20 -33 2 -4 16 -8 18 -14 8
-12 -18 -29 7 -29 44 0 27 -35 69 -98 118 -18 14 -32 29 -32 35 -1 24 -49 63
-86 69 -104 18 -180 23 -191 14 -8 -6 -23 6 -49 41 l-38 51 -323 0 c-280 0
-323 -2 -323 -15 0 -8 -7 -15 -15 -15 -9 0 -18 7 -21 15 -7 17 -74 21 -74 5 0
-5 -13 -10 -30 -10 -16 0 -30 4 -30 9 0 15 -189 10 -249 -6z m70 -48 c0 -5 -9
-11 -21 -13 -20 -3 -27 8 -13 22 10 9 34 3 34 -9z m1009 -15 c0 -8 -24 -20
-41 -20 -22 0 -7 25 16 26 14 1 25 -2 25 -6z m-1070 -20 c0 -5 -7 -10 -15 -10
-8 0 -15 5 -15 10 0 6 7 10 15 10 8 0 15 -4 15 -10z m1510 -221 c7 -11 9 -28
5 -37 -5 -13 -9 -10 -20 12 -8 16 -15 32 -15 37 0 17 19 9 30 -12z m-2180 -24
c0 -7 -7 -15 -15 -19 -15 -5 -22 24 -9 37 9 9 24 -2 24 -18z m2545 -154 c8
-14 -12 -23 -36 -16 -17 6 -19 9 -8 16 18 11 36 11 44 0z m-45 -41 c0 -5 -4
-10 -10 -10 -5 0 -10 5 -10 10 0 6 5 10 10 10 6 0 10 -4 10 -10z m68 -26 c12
-8 22 -24 22 -35 0 -10 -1 -19 -2 -19 -12 1 -91 29 -83 29 6 1 3 6 -5 11 -13
9 -13 11 0 20 21 14 42 12 68 -6z m-2764 -63 c10 -15 -4 -39 -25 -44 -25 -7
-33 7 -17 33 13 21 33 26 42 11z m2741 -21 c8 -13 -25 -13 -45 0 -12 8 -9 10
12 10 15 0 30 -4 33 -10z m-2822 -47 c-9 -26 -34 -53 -50 -53 -18 0 -17 7 8
41 23 32 52 40 42 12z m2825 8 c7 -4 20 -20 27 -34 12 -23 12 -27 0 -27 -8 0
-19 9 -25 21 -8 15 -18 19 -34 15 -17 -4 -22 -1 -23 14 -2 21 30 28 55 11z
m-3 -61 c3 -5 -1 -10 -9 -10 -9 0 -16 5 -16 10 0 6 4 10 9 10 6 0 13 -4 16
-10z m-2835 -202 c0 -7 -9 -24 -20 -38 -16 -21 -20 -22 -20 -7 0 23 18 57 30
57 6 0 10 -6 10 -12z m-150 -212 c0 -22 -25 -37 -38 -24 -17 17 -15 36 6 41
22 5 32 -1 32 -17z m3330 -36 c0 -11 -4 -20 -10 -20 -5 0 -10 9 -10 20 0 11 5
20 10 20 6 0 10 -9 10 -20z m-1427 -152 c9 -5 17 -15 17 -23 0 -7 3 -15 8 -17
4 -1 15 -20 24 -40 10 -21 24 -38 32 -38 10 0 16 -17 21 -57 12 -120 16 -141
30 -159 13 -17 14 -18 15 -1 0 9 5 17 10 17 29 0 -23 -79 -60 -93 -50 -19 -34
-27 50 -27 l80 0 6 -40 c6 -34 11 -41 40 -50 19 -7 34 -15 34 -20 0 -10 -25
-20 -50 -20 -22 0 -37 -19 -22 -29 17 -11 33 -62 26 -85 -10 -31 -34 -45 -76
-46 -21 0 -38 -4 -38 -8 0 -11 -50 -48 -78 -56 -19 -6 -25 -4 -29 13 -6 24
-33 29 -33 6 0 -8 -4 -15 -9 -15 -5 0 -11 -10 -13 -22 -2 -15 -12 -25 -28 -28
-16 -3 -25 -12 -25 -24 0 -11 -6 -21 -12 -23 -8 -3 -13 5 -13 21 0 28 -14 35
-24 11 -3 -8 -17 -15 -31 -15 -16 0 -25 6 -25 15 0 8 -4 15 -10 15 -11 0 -42
69 -35 80 2 4 -7 17 -20 28 -25 22 -85 30 -85 12 0 -5 16 -10 35 -10 24 0 35
-5 35 -15 0 -9 -9 -15 -23 -15 -13 0 -29 -6 -35 -12 -10 -10 -15 -10 -20 -1
-4 6 -23 13 -42 15 -27 2 -36 8 -38 25 -2 12 -12 25 -22 28 -10 3 -17 13 -15
23 4 24 -15 43 -36 37 -25 -8 -41 26 -37 77 3 45 22 62 31 28 4 -15 13 -20 41
-20 39 0 48 19 21 46 -8 9 -15 29 -15 45 0 19 5 29 15 29 8 0 15 9 15 20 0 11
-7 20 -15 20 -8 0 -15 9 -15 20 0 11 4 20 9 20 15 0 0 40 -20 51 -15 8 -20 5
-25 -16 -5 -20 -9 -23 -20 -14 -11 9 -10 14 6 32 11 11 20 27 20 35 0 8 8 21
18 28 12 9 14 16 6 24 -9 8 -8 22 1 53 9 32 18 43 36 45 13 2 29 8 36 13 7 7
14 6 18 -1 3 -5 15 -10 25 -10 21 0 34 31 25 59 -4 15 2 25 22 38 15 10 30 21
33 24 3 4 16 9 30 11 42 6 204 -4 223 -14z m1315 -60 c-4 -27 -28 -36 -28 -10
0 20 8 32 22 32 5 0 8 -10 6 -22z m-1808 -178 c0 -22 -4 -40 -10 -40 -5 0 -10
18 -10 40 0 22 5 40 10 40 6 0 10 -18 10 -40z m693 -527 c-7 -2 -19 -2 -25 0
-7 3 -2 5 12 5 14 0 19 -2 13 -5z m-315 -303 c2 -14 8 -29 13 -34 5 -6 9 -20
9 -33 0 -13 6 -23 13 -23 8 0 22 -18 32 -40 10 -22 22 -40 27 -40 4 0 8 -11 8
-24 0 -14 5 -28 10 -31 7 -4 10 -57 9 -138 -1 -83 4 -165 14 -221 21 -114 11
-142 -59 -176 -102 -48 -141 -47 -202 8 -41 38 -52 99 -27 157 19 45 22 234 5
280 -13 34 -13 92 0 100 6 3 10 15 10 26 0 27 23 99 32 99 5 0 8 9 8 20 0 11
9 29 20 40 11 11 15 20 8 20 -6 0 -3 9 7 20 25 28 59 22 63 -10z m-457 -60
c33 -18 23 -43 -27 -64 -25 -10 -47 -16 -50 -13 -5 5 45 87 53 87 2 0 13 -5
24 -10z m819 -16 c0 -8 5 -14 10 -14 6 0 10 -7 10 -15 0 -19 -9 -19 -50 2
l-33 16 22 19 c24 19 41 16 41 -8z m223 -29 c-3 -9 -8 -14 -10 -11 -3 3 -2 9
2 15 9 16 15 13 8 -4z m-259 -160 c19 -19 38 -35 43 -35 6 0 16 -6 22 -14 9
-11 5 -15 -19 -19 -45 -9 -38 -34 10 -39 28 -2 40 0 40 9 0 8 14 13 40 13 22
0 40 5 40 10 0 6 -18 10 -40 10 -45 0 -54 14 -15 24 14 4 24 10 21 14 -2 4 51
7 117 7 75 0 130 5 143 12 15 9 31 9 58 2 41 -11 45 -22 15 -35 -15 -7 -23
-21 -25 -43 -2 -18 -12 -46 -21 -62 -16 -27 -22 -29 -74 -29 -42 0 -63 -5 -80
-20 -20 -16 -22 -21 -10 -29 12 -8 12 -12 2 -25 -11 -13 -11 -19 0 -33 11 -13
11 -17 2 -20 -18 -6 -16 -33 2 -33 9 0 15 -9 15 -25 0 -18 -5 -25 -18 -25 -17
0 -42 -36 -42 -61 0 -5 -12 -21 -27 -34 -22 -19 -26 -27 -18 -42 6 -10 9 -32
7 -48 -3 -29 -5 -30 -44 -27 -31 3 -48 12 -71 39 -20 23 -33 30 -37 23 -17
-28 -31 49 -45 245 -6 92 -15 144 -26 150 -5 4 -9 26 -9 51 0 24 -4 44 -10 44
-5 0 -10 9 -10 20 0 11 5 20 10 20 6 0 10 5 10 10 0 6 -8 10 -17 10 -15 0 -16
2 -3 10 23 15 29 13 64 -25z m123 -11 c-3 -3 -12 -4 -19 -1 -8 3 -5 6 6 6 11
1 17 -2 13 -5z m-1182 -45 c5 -5 -19 -9 -58 -9 -66 0 -67 0 -68 -27 l-2 -28
-4 28 c-2 15 -10 27 -16 27 -7 0 -3 7 8 16 15 11 33 13 75 8 30 -3 59 -10 65
-15z m1955 -79 c0 -5 -7 -10 -15 -10 -8 0 -14 -3 -14 -7 4 -24 -4 -34 -10 -13
-5 18 -3 27 8 32 23 10 31 9 31 -2z m-1654 -10 c11 0 11 -5 2 -25 -6 -14 -15
-25 -20 -25 -4 0 -8 -7 -8 -15 0 -8 -7 -15 -15 -15 -19 0 -20 -43 -1 -59 11
-10 15 -8 19 6 4 14 5 13 6 -4 1 -21 -4 -23 -44 -23 l-45 0 0 -37 c0 -21 5
-45 10 -53 6 -10 10 -11 10 -2 0 7 13 12 30 12 23 0 30 -4 30 -20 0 -11 -4
-20 -10 -20 -5 0 -10 5 -10 10 0 6 -4 10 -10 10 -5 0 -10 -16 -10 -35 0 -22
-8 -43 -20 -55 -11 -11 -20 -27 -20 -35 0 -8 -9 -15 -20 -15 -21 0 -27 15 -10
25 6 3 10 17 10 31 0 13 5 24 10 24 14 0 12 42 -4 63 -8 10 -26 17 -44 17 -36
0 -38 3 -47 52 -6 32 -5 36 12 34 18 -4 53 20 53 36 0 4 -9 17 -19 27 -28 28
-59 17 -63 -23 -2 -22 -8 -31 -20 -30 -10 1 -18 -3 -18 -8 0 -6 -6 -5 -15 2
-8 7 -15 25 -15 41 0 19 5 29 15 29 15 0 20 16 16 58 -2 21 2 22 51 21 29 -1
61 -6 72 -11 12 -7 26 -6 40 0 28 14 58 21 74 16 8 -2 20 -4 28 -4z m-346 -10
c0 -5 -6 -10 -14 -10 -8 0 -18 5 -21 10 -3 6 3 10 14 10 12 0 21 -4 21 -10z
m1937 -89 c-14 -17 -27 -27 -31 -24 -3 3 7 20 22 37 15 18 29 28 30 24 2 -4
-7 -21 -21 -37z m-1460 -173 c-3 -8 -6 -5 -6 6 -1 11 2 17 5 13 3 -3 4 -12 1
-19z m570 -40 c-3 -8 -6 -5 -6 6 -1 11 2 17 5 13 3 -3 4 -12 1 -19z m233 -178
c0 -13 -11 -13 -30 0 -12 8 -11 10 8 10 12 0 22 -4 22 -10z m-447 -157 c-7 -2
-19 -2 -25 0 -7 3 -2 5 12 5 14 0 19 -2 13 -5z m-60 -29 c-18 -9 -40 -14 -48
-10 -28 10 -5 26 38 26 l42 0 -32 -16z m76 -204 c24 0 27 -10 9 -28 -19 -19
-42 -14 -66 12 -22 26 -11 41 20 25 9 -5 26 -9 37 -9z m38 -2 c-3 -8 -6 -5 -6
6 -1 11 2 17 5 13 3 -3 4 -12 1 -19z m-143 3 c3 -4 -1 -17 -9 -27 -14 -18 -14
-18 -15 9 0 26 13 36 24 18z m123 -317 c-3 -3 -12 -4 -19 -1 -8 3 -5 6 6 6 11
1 17 -2 13 -5z"/>
<path d="M2190 3070 c0 -5 7 -10 15 -10 8 0 15 5 15 10 0 6 -7 10 -15 10 -8 0
-15 -4 -15 -10z"/>
<path d="M2290 2360 c0 -13 7 -20 19 -20 11 0 21 -6 24 -12 2 -8 8 -9 13 -4 5
5 4 11 -3 13 -7 3 -13 13 -13 24 0 12 -7 19 -20 19 -13 0 -20 -7 -20 -20z"/>
<path d="M2510 2228 c0 -14 8 -18 40 -18 28 0 40 4 40 14 0 9 -14 15 -40 18
-33 3 -40 0 -40 -14z"/>
<path d="M240 4490 c0 -5 5 -10 10 -10 6 0 10 5 10 10 0 6 -4 10 -10 10 -5 0
-10 -4 -10 -10z"/>
<path d="M302 4462 c-23 -20 -42 -43 -42 -51 0 -8 17 4 38 27 22 23 44 42 50
42 7 0 12 5 12 10 0 17 -14 11 -58 -28z"/>
<path d="M3360 4431 c0 -5 9 -13 21 -16 38 -12 89 -65 89 -94 1 -22 2 -24 11
-9 16 28 -17 85 -62 108 -42 22 -59 25 -59 11z"/>
<path d="M3423 4133 c-27 -10 -11 -20 32 -19 39 1 43 3 28 14 -17 12 -38 14
-60 5z"/>
<path d="M2981 274 c0 -11 3 -14 6 -6 3 7 2 16 -1 19 -3 4 -6 -2 -5 -13z"/>
</g>
</svg>
